<svg width="25" height="30" viewBox="0 0 25 30" fill="none" xmlns="http://www.w3.org/2000/svg">
<path d="M14.1889 2.9171L14.1889 2.9171C15.1246 1.71069 16.2392 1.10726 17.1202 0.803833C17.5268 0.663803 17.8827 0.588117 18.1458 0.547295C18.1469 0.777336 18.1316 1.08126 18.0744 1.43573C17.9402 2.26727 17.5754 3.37671 16.644 4.47156L17.0249 4.79554L16.644 4.47157C15.6501 5.63991 14.6043 6.11352 13.8226 6.30236C13.4508 6.3922 13.1349 6.41837 12.9088 6.42153C12.9019 6.23624 12.9074 5.98743 12.9492 5.68965C13.0481 4.98596 13.3508 3.99777 14.1889 2.9171ZM23.4686 10.0658C23.4398 10.0854 23.4101 10.1059 23.3794 10.1274C23.0446 10.3626 22.6003 10.7198 22.1558 11.2118C21.2635 12.1995 20.3686 13.7352 20.3686 15.8983C20.3686 18.34 21.4857 19.9913 22.5941 21.0202C23.1458 21.5323 23.6963 21.892 24.1095 22.1242C24.2012 22.1757 24.2864 22.2211 24.3636 22.2606C24.2813 22.4641 24.1697 22.7313 24.031 23.043C23.7048 23.7762 23.2315 24.7498 22.6412 25.72C22.0487 26.6938 21.3508 27.6432 20.581 28.3436C19.8078 29.0472 19.0112 29.4559 18.2111 29.4559C17.4182 29.4559 16.7049 29.1962 15.8825 28.8957C15.0819 28.6032 14.1831 28.2748 13.1387 28.2748C12.0822 28.2748 11.051 28.61 10.1798 28.9156C10.0805 28.9504 9.98379 28.9847 9.8893 29.0182C9.55741 29.1359 9.25351 29.2436 8.96621 29.3295C8.59631 29.4402 8.29955 29.5 8.06234 29.5C7.34407 29.5 6.50829 29.1144 5.62779 28.3492C4.75583 27.5915 3.8914 26.5049 3.12526 25.2151C1.59002 22.6303 0.5 19.3159 0.5 16.3929C0.5 10.6608 4.12594 7.79754 7.38194 7.79754C8.45142 7.79754 9.41417 8.09889 10.294 8.42206C10.4288 8.47158 10.5645 8.52271 10.6993 8.57347C10.9914 8.68352 11.2789 8.79185 11.5429 8.87831C11.9309 9.0054 12.3312 9.10788 12.7145 9.10788C13.0675 9.10788 13.4533 8.99273 13.8219 8.86086C14.0309 8.78607 14.2711 8.69148 14.5195 8.59365C14.7026 8.52156 14.8901 8.44771 15.0729 8.37873C15.9788 8.03689 17.0181 7.71396 18.179 7.71396C20.2082 7.71396 21.6039 8.41739 22.4911 9.10862C22.937 9.4561 23.2568 9.80253 23.4632 10.0591C23.465 10.0613 23.4668 10.0636 23.4686 10.0658Z" fill="white" stroke="black"/>
</svg>
